<?xml version="1.0" encoding="UTF-8" standalone="no"?>
<svg
   xmlns:dc="http://purl.org/dc/elements/1.1/"
   xmlns:cc="http://creativecommons.org/ns#"
   xmlns:rdf="http://www.w3.org/1999/02/22-rdf-syntax-ns#"
   xmlns:svg="http://www.w3.org/2000/svg"
   xmlns="http://www.w3.org/2000/svg"
   version="1.1"
   id="svg4134"
   viewBox="0 0 36.000422 45.985237"
   height="12.978056mm"
   width="10.160119mm">
  <defs
     id="defs4136" />
  <metadata
     id="metadata4139">
    <rdf:RDF>
      <cc:Work
         rdf:about="">
        <dc:format>image/svg+xml</dc:format>
        <dc:type
           rdf:resource="http://purl.org/dc/dcmitype/StillImage" />
        <dc:title></dc:title>
      </cc:Work>
    </rdf:RDF>
  </metadata>
  <g
     transform="translate(-26.333584,-115.66654)"
     id="layer1">
    <path
       id="path4220"
       d="m 39.333584,159.15178 c -1.935004,-2.05972 -3.28655,-2.5 -7.674314,-2.5 l -5.325686,0 0.0066,-4.25 c 0.004,-2.55782 0.797665,-5.44448 1.993411,-7.25 1.349753,-2.03806 1.988934,-4.6937 1.993411,-8.28212 0.0078,-6.22108 1.837999,-11.1345 5.140458,-13.79998 1.306926,-1.05484 3.189159,-3.18185 4.182739,-4.72667 2.415339,-3.75537 7.538548,-3.51446 9.425625,0.44323 0.690879,1.44895 2.419095,3.39645 3.840481,4.32778 3.429268,2.24694 5.415803,7.28505 5.423875,13.75564 0.0045,3.58842 0.643658,6.24406 1.993413,8.28212 1.19574,1.80552 1.98944,4.69218 1.99341,7.25 l 0.007,4.25 -5.819666,0 c -4.961316,0 -6.140269,0.36873 -7.993386,2.5 -1.195547,1.375 -3.223257,2.5 -4.506022,2.5 -1.282764,0 -3.389182,-1.125 -4.680927,-2.5 z m 7,-1.60699 c 0,-0.49116 -1.125,-0.89301 -2.5,-0.89301 -2.598834,0 -3.429981,1.50894 -1.25,2.26936 1.608143,0.56095 3.75,-0.22517 3.75,-1.37635 z m 14.000003,-3.89301 c 0,-0.625 -6.000003,-1 -16.000003,-1 -10,0 -16,0.375 -16,1 0,0.625 6,1 16,1 10,0 16.000003,-0.375 16.000003,-1 z m -1,-4.50362 c 0,-0.277 -0.900003,-2.18283 -2.000003,-4.2352 -1.348479,-2.51597 -2,-5.64208 -2,-9.59637 0,-5.33645 -0.306305,-6.17112 -3.4,-9.26481 -2.787302,-2.7873 -4.156863,-3.4 -7.6,-3.4 -3.443137,0 -4.812698,0.6127 -7.6,3.4 -3.093695,3.09369 -3.4,3.92836 -3.4,9.26481 0,3.95429 -0.651521,7.0804 -2,9.59637 -1.1,2.05237 -2,3.9582 -2,4.2352 0,0.27699 6.75,0.50362 15,0.50362 8.25,0 15.000003,-0.22663 15.000003,-0.50362 z m -5.800068,-3.24638 c -0.573488,-1.5125 -1.264231,-5.60464 -1.534984,-9.09365 -0.369147,-4.75693 -1.056801,-6.94455 -2.749225,-8.74606 -1.24132,-1.32132 -1.917981,-2.74137 -1.503691,-3.15566 0.41429,-0.41429 2.066064,0.71604 3.67061,2.51183 2.501978,2.8002 2.918232,4.08154 2.923516,8.99932 0.0034,3.15382 0.678388,7.02316 1.5,8.59853 1.82898,3.50691 1.833059,3.63569 0.115159,3.63569 -0.758273,0 -1.847897,-1.2375 -2.421385,-2.75 z m -10.199935,-21.25 c 0,-0.55 0.45,-1 1,-1 0.55,0 1,0.45 1,1 0,0.55 -0.45,1 -1,1 -0.55,0 -1,-0.45 -1,-1 z m 2.25,-5.66228 c -0.6875,-0.27741 -1.8125,-0.27741 -2.5,0 -0.6875,0.27741 -0.125,0.50439 1.25,0.50439 1.375,0 1.9375,-0.22698 1.25,-0.50439 z"
       style="fill:#1f1f1f" />
  </g>
</svg>
