<?xml version="1.0" encoding="utf-8"?>
<!-- Generator: Adobe Illustrator 21.1.0, SVG Export Plug-In . SVG Version: 6.00 Build 0)  -->
<svg version="1.1" xmlns="http://www.w3.org/2000/svg" xmlns:xlink="http://www.w3.org/1999/xlink" x="0px" y="0px"
	 viewBox="0 0 500 500" style="enable-background:new 0 0 500 500;" xml:space="preserve">
<style type="text/css">
	.st0{fill:#00A931;}
	.st1{fill:#FFFFFF;}
</style>
<g id="Layer_2">
	<g>
		<path class="st0" d="M249.8,82.6c-92,0-166.8,74.8-166.8,166.8s74.8,166.8,166.8,166.8c92,0,166.8-74.8,166.8-166.8
			S341.8,82.6,249.8,82.6z"/>
		<path class="st0" d="M250.9,1.9c-137.3,0-249,111.7-249,249c0,137.3,111.7,249,249,249c137.3,0,249-111.7,249-249
			C499.9,113.6,388.2,1.9,250.9,1.9z M250.9,489.8C119.2,489.8,12.1,382.6,12.1,251S119.2,12.1,250.9,12.1
			c131.7,0,238.8,107.1,238.8,238.8S382.6,489.8,250.9,489.8z"/>
		<path class="st0" d="M239,461.7c6.6,0.1,12.5,0.3,18.3,0.4c0.1-6,0.2-11.7,0.4-17.5c-6-0.1-11.5-0.2-17.3-0.4
			C239.9,450.1,239.4,455.6,239,461.7z"/>
		<path class="st0" d="M65,299.5c-5.8,1.5-11.3,3-17.2,4.5c1.9,6.1,3.7,11.9,5.7,18c5.8-2.1,11.2-4.1,16.7-6.1
			C68.4,310.3,66.8,305.2,65,299.5z"/>
		<path class="st0" d="M76.8,332c-5.6,2.6-10.8,5.1-16.3,7.6c3.2,6,5.9,11.3,8.8,16.7c5.4-3.1,10.2-5.9,15.4-9
			C82.1,342.2,79.5,337.2,76.8,332z"/>
		<path class="st0" d="M166.1,443.6c6,2.4,11.6,4.6,17.5,7c2-5.8,3.9-11.2,5.9-16.9c-5.6-2.2-10.8-4.2-16.1-6.3
			C170.7,433.2,168.5,438.2,166.1,443.6z"/>
		<path class="st0" d="M78.5,164.5c-5.6-2.7-10.6-5.1-16.1-7.8c-2.6,5.9-5,11.4-7.6,17.3c5.7,2.2,10.9,4.2,16.7,6.4
			C74,174.8,76.2,169.7,78.5,164.5z"/>
		<path class="st0" d="M104,401c4.7,4.3,9.2,8.3,14,12.7c3.9-4.7,7.6-9.2,11.4-13.8c-4.6-4.1-8.7-7.8-12.9-11.6
			C112.1,392.7,108.2,396.7,104,401z"/>
		<path class="st0" d="M201.9,456.1c6.7,1.3,12.3,2.4,18.3,3.6c0.9-6,1.8-11.7,2.8-17.6c-5.7-1.1-11-2.2-17-3.4
			C204.5,444.8,203.2,450.4,201.9,456.1z"/>
		<path class="st0" d="M66,196.8c-5.9-1.7-11.5-3.2-17.2-4.8c-1.5,6.5-2.8,12.2-4.2,18.3c6.1,1.1,11.6,2.2,17.5,3.2
			C63.4,207.8,64.7,202.5,66,196.8z"/>
		<path class="st0" d="M59.2,265.3c-6.1,0.6-11.8,1.1-17.8,1.6c0.8,6.4,1.5,12.3,2.3,18.7c6.2-1.1,11.7-2.1,17.6-3.1
			C60.6,276.6,59.9,271.1,59.2,265.3z"/>
		<path class="st0" d="M95.2,363.1c-5.1,3.7-9.5,7-14.4,10.6c4.2,5.2,8,9.8,11.9,14.7c4.7-4.2,9-8,13.3-11.9
			C102.3,371.7,98.8,367.5,95.2,363.1z"/>
		<path class="st0" d="M133.1,425c5.4,3.4,10.5,6.6,16,10.1c3.1-5.6,5.9-10.4,8.8-15.6c-5-3.1-9.8-6.1-14.7-9.1
			C139.7,415.6,136.5,420.1,133.1,425z"/>
		<path class="st0" d="M59,230.8c-5.6-0.6-11.1-1.1-17.3-1.7c-0.1,6.5-0.3,12.5-0.4,18.4c5.7,0.1,11.3,0.2,17.3,0.4
			C58.7,242.1,58.8,236.6,59,230.8z"/>
		<path class="st0" d="M93.9,137.4c-4.6-3.5-9.1-6.9-13.9-10.6c-3.7,5.5-7,10.3-10.2,15.1c5,3.4,9.7,6.5,14.5,9.8
			C87.6,146.8,90.7,142.2,93.9,137.4z"/>
		<path class="st0" d="M316.2,51.8c-6.2-1.7-12-3.3-18.2-5c-1.4,6.1-2.6,11.6-3.9,17.4c5.7,1.6,10.9,3,16.6,4.6
			C312.5,63,314.3,57.6,316.2,51.8z"/>
		<path class="st0" d="M279.4,43.3c-6.7-0.6-12.7-1.1-18.8-1.7c-0.3,6.2-0.5,11.8-0.8,17.8c5.8,0.6,11.3,1.1,17.2,1.7
			C277.8,55,278.6,49.2,279.4,43.3z"/>
		<path class="st0" d="M144.5,90.3c-3.5-5.3-6.5-9.9-9.7-14.9c-5.3,3.8-10.2,7.2-15.3,10.9c3.8,4.8,7.3,9.3,11,14.1
			C135.3,97,139.8,93.7,144.5,90.3z"/>
		<path class="st0" d="M416.8,153.4c5.3-3.2,10.1-6.1,15.2-9.3c-3.5-5.4-6.9-10.4-10.4-15.7c-4.9,3.6-9.4,6.9-14.4,10.5
			C410.6,144.1,413.6,148.6,416.8,153.4z"/>
		<path class="st0" d="M208.2,63.8c-1.4-6.1-2.6-11.5-3.9-17.4c-6.1,1.6-12,3.2-18.2,4.9c1.8,5.8,3.6,11.4,5.4,17.1
			C197.4,66.8,202.7,65.3,208.2,63.8z"/>
		<path class="st0" d="M117.2,111.6c-4.4-4.5-8.3-8.6-12.4-12.9c-4.7,4.9-8.7,9-13,13.5c4.6,4.1,8.8,7.9,13.3,11.9
			C109.2,119.9,113,116,117.2,111.6z"/>
		<path class="st0" d="M409.8,113.5c-4.6-4.8-8.7-8.9-13.1-13.5c-4.2,4.5-8.1,8.6-12.2,12.9c4.1,4.3,7.8,8.2,11.9,12.4
			C401,121.3,405.3,117.5,409.8,113.5z"/>
		<path class="st0" d="M350.8,66.7c-5.8-2.8-11.1-5.4-16.9-8.2c-2.4,5.8-4.6,10.9-6.9,16.4c5.3,2.6,10.3,5,15.6,7.5
			C345.4,77,348,72,350.8,66.7z"/>
		<path class="st0" d="M242.4,59.4c-0.3-6.3-0.5-11.8-0.7-17.8c-6.7,0.6-12.6,1.1-18.8,1.6c0.8,6.3,1.6,11.9,2.4,17.7
			C231.3,60.3,236.8,59.9,242.4,59.4z"/>
		<path class="st0" d="M175.1,74.3c-2.4-5.8-4.5-10.9-6.8-16.5c-5.8,2.7-11.2,5.2-17.1,8c3,5.7,5.6,10.6,8.3,15.9
			C164.8,79.2,169.8,76.8,175.1,74.3z"/>
		<path class="st0" d="M382.5,87.5c-5.4-3.6-10.3-7-15.3-10.3c-3.2,4.7-6.3,9.3-9.7,14.3c4.8,3.2,9.4,6.3,14.2,9.6
			C375.2,96.6,378.7,92.3,382.5,87.5z"/>
		<path class="st0" d="M429.8,180.9c5.5-1.9,10.8-3.8,16.5-5.8c-2.5-6.1-4.8-11.5-7-16.9c-5.6,2.3-10.8,4.5-16.1,6.7
			C425.4,170.5,427.6,175.6,429.8,180.9z"/>
		<path class="st0" d="M369,401c3.7,4.7,7.3,9.2,11.1,13.9c4.9-4.2,9.4-8.2,14.2-12.4c-4.3-4.5-8.2-8.6-12.3-12.9
			C377.5,393.6,373.4,397.1,369,401z"/>
		<path class="st0" d="M393.9,375.8c4.6,4.1,9,7.9,13.5,11.8c4.2-5.3,7.9-10,11.8-14.8c-5-3.7-9.5-6.9-14.4-10.5
			C401.2,366.9,397.7,371.2,393.9,375.8z"/>
		<path class="st0" d="M441.2,249.1c6.3,0,11.9,0.1,17.8,0.1c-0.2-6.5-0.4-12.5-0.6-18.8c-6.1,0.5-11.8,0.9-17.8,1.4
			C440.7,237.7,440.9,243.3,441.2,249.1z"/>
		<path class="st0" d="M428.2,316.8c5.8,2.2,11.1,4.2,16.6,6.3c2-6,3.9-11.8,6-17.9c-5.9-1.7-11.5-3.3-17.2-4.9
			C431.7,306.2,429.9,311.5,428.2,316.8z"/>
		<path class="st0" d="M438.4,214.6c6.2-1.2,11.8-2.2,17.6-3.3c-1.5-6.6-2.7-12.2-4.1-18.2c-5.9,1.6-11.4,3-17.2,4.5
			C435.9,203.3,437.1,208.6,438.4,214.6z"/>
		<path class="st0" d="M274.8,443c0.9,6.1,1.7,11.8,2.5,17.7c6.5-1.2,12.3-2.3,18.5-3.5c-1.4-6-2.7-11.5-4-17.3
			C285.8,441,280.5,442,274.8,443z"/>
		<path class="st0" d="M340,420.6c3,5.4,5.7,10.4,8.6,15.6c5.6-3.3,10.6-6.3,16.2-9.6c-3.5-5.3-6.6-9.9-9.9-14.8
			C349.8,414.8,345,417.6,340,420.6z"/>
		<path class="st0" d="M413,347.8c5.4,3.2,10.1,6.1,15.3,9.2c3.2-5.9,6-11.2,9-16.6c-5.7-2.8-10.8-5.2-16.1-7.8
			C418.3,338,415.7,342.9,413,347.8z"/>
		<path class="st0" d="M437.7,283.4c6.2,1.2,11.6,2.2,17.5,3.4c0.9-6.3,1.8-12.2,2.8-18.7c-6.4-0.6-11.9-1.2-17.8-1.8
			C439.3,272.1,438.5,277.7,437.7,283.4z"/>
		<path class="st0" d="M307.8,433.9c1.8,5.4,3.5,10.6,5.4,16.5c6-2.5,11.5-4.8,17-7.1c-2.2-5.3-4.3-10.4-6.6-16
			C318.3,429.6,313.2,431.7,307.8,433.9z"/>
	</g>
</g>
<g id="Layer_3">
	<path class="st1" d="M162.5,258.2c-1.4-1.4-2.1-3.5-2.1-4.9c0-1.4,0.7-3.5,2.1-4.9l9.8-9.8c2.8-2.8,7-2.8,9.8,0l0.7,0.7l38.4,41.2
		c1.4,1.4,3.5,1.4,4.9,0l93.5-97h0.7l0,0c2.8-2.8,7-2.8,9.8,0l9.8,9.8c2.8,2.8,2.8,7,0,9.8l0,0L228,318.9c-1.4,1.4-2.8,2.1-4.9,2.1
		c-2.1,0-3.5-0.7-4.9-2.1l-54.4-58.6C163.9,260.3,162.5,258.2,162.5,258.2z"/>
</g>
</svg>
