<?xml version="1.0" encoding="utf-8"?>
<!-- Generator: Adobe Illustrator 21.1.0, SVG Export Plug-In . SVG Version: 6.00 Build 0)  -->
<svg version="1.1" xmlns="http://www.w3.org/2000/svg" xmlns:xlink="http://www.w3.org/1999/xlink" x="0px" y="0px"
	 viewBox="0 0 500 500" style="enable-background:new 0 0 500 500;" xml:space="preserve">
<style type="text/css">
	.st0{fill:#E79929;}
	.st1{fill:#31A83F;}
	.st2{fill:#FFFFFF;}
</style>
<g id="Layer_2">
	<path class="st0" d="M421.4,245c-0.7-18.4-4.2-36-10.2-52.5c20.9-20.9,41.7-41.6,62.6-62.5c-2.6-4.5-5.6-9.6-8.6-14.7
		c-0.6,0.2-1,0.2-1.2,0.4c-20.1,20-40.1,40-60.1,60c-2.4-4.8-4.9-9.5-7.7-14c20-20,39.9-39.8,59.9-59.8c-3.2-4.1-6.7-8.7-10.1-13.1
		c-19.9,19.9-39.5,39.5-59.2,59.2c-3.2-4.2-6.6-8.3-10.1-12.3c19.5-19.5,39.1-39.1,58.5-58.5c-3.7-3.8-7.7-7.9-11.2-11.4
		c-19.8,19.7-39.4,39.3-58.6,58.5c-4.1-3.8-8.4-7.3-12.9-10.7c19.8-19.8,39.4-39.4,59.1-59.1c-4.2-3.3-8.9-6.8-13.2-10.2
		c-20.1,20.1-40,39.9-59.9,59.9c-4.3-2.6-8.7-5-13.3-7.2C344.5,77.5,363.8,58.3,383,39c1-1,1.8-2.1,2.9-3.4
		c-5.6-3.2-10.7-6.2-14.5-8.4c-21.1,21.1-41.8,41.8-62.5,62.5c-16.6-6.1-34.4-9.7-53-10.4V0.1l-21.4,0.2c-0.8,0.2-1.7,0.5-2.5,0.6
		c-5.2,0.9-10.5,1.8-15.8,2.7c-11.7,1.9-23.9,3.9-35.5,6.7c-8,1.9-15.7,4.9-23.8,8c-2.5,1-5,1.9-7.5,2.9l30.2,72.8
		c-60.4,26.8-102.6,87.3-102.6,157.6c0,95.2,77.2,172.4,172.4,172.4c46.4,0,88.4-18.3,119.4-48.1l55.3,55.2
		c39.1-38.3,63.6-84.2,72.9-136.5c1.2-6.7,2-13.4,2.8-20.1c0.4-3.1,0.8-6.2,1.2-9.3V245H421.4z M167.8,26.4
		c23.9-8.9,47.8-13.6,73.1-14.6l3.6-0.1v58.7l-57.6,11.5l-22.5-54.2L167.8,26.4z M489.1,260.1c-2.9,58-24,109.2-62.7,151.9l-2.4,2.7
		l-43.1-42.5l2.2-2.5c13.8-15.5,24.6-32.6,32.2-50.9c7.8-18.7,12.1-38,13.3-59.2l0.2-3.3h60.5L489.1,260.1z"/>
	<g>
		<path class="st1" d="M121.5,83.9l-15.6-37.6c-54,37.8-91.1,96.9-102.3,162.8c-11.4,67.7,4.9,135.3,46.2,190.4
			c87.6,117.1,240.1,123.4,333.9,62.5c-0.2-0.2-0.3-0.3-0.5-0.5l-10-9.9c-15.9-15.8-31.8-31.6-47.5-47.7c-2.5-2.6-3.5-2.7-6.9-1.3
			c-45.7,20.1-91.8,20-137.2-0.4c-38.8-17.4-67.2-46.3-84.5-86c-15-34.4-17.7-70.7-8.1-107.9c8.1-31.2,24.2-58.2,47.9-80
			c2-1.8,2.2-2.5,1.1-4.9C132.4,110.3,126.9,97.1,121.5,83.9z M120.9,128c-18.1,19.1-31.4,41.4-39.6,66.1
			c-9.8,29.5-11.9,59-6.2,87.6c12.3,62.7,48,107.3,106.1,132.8c42.4,18.6,86.8,19.4,132,2.7c3.7-1.4,7.8-2,12.2,2.6
			c8.6,8.8,17.4,17.5,26.3,26.2l13.9,13.7l-4.2,2.2c-35.4,18.5-73.4,27.4-110.8,27.4c-77.8,0-153.5-38.2-199.4-107.4
			C-15.6,281.3,4.7,143.1,97.3,67.3l3.6-2.9l3.4,7.9c1.2,2.7,2.3,5.4,3.4,8.1l4.8,11.6c3.4,8.3,6.8,16.7,10.4,24.9
			C124.7,121.2,124.1,124.6,120.9,128z"/>
		<path class="st0" d="M355.7,19.4c-17.8,17.8-35.2,35.3-53.3,53.3c0-8.3-0.1-16.2,0.1-24.2c0-1.1,1.3-2.2,2.2-3.1
			C315,35.2,325.3,25,335.5,14.6c2-2,3.6-2.3,6-1.1C346.1,15.6,350.9,17.5,355.7,19.4z"/>
		<path class="st0" d="M481.5,145.4c1.9,4.7,4.2,9.8,6.1,15.1c0.4,1.1-0.1,3.2-1,4.1c-10.5,10.7-21.2,21.3-31.8,31.9
			c-0.8,0.8-1.9,1.8-2.8,1.8c-7.8,0.1-15.7,0.1-23.6,0.1C446.3,180.5,463.8,163,481.5,145.4z"/>
		<path class="st0" d="M474.6,198c6.5-6.5,12.8-12.7,19.2-19.1c1.5,6,3.1,12.2,4.9,19.1C490.2,198,482.2,198,474.6,198z"/>
		<path class="st0" d="M323.3,7.2c-6.8,6.7-12.6,12.4-18.4,18.1c-0.5,0.5-1.2,0.9-2.3,1.7c0-8.5,0-16.4,0-25
			C309.3,3.7,315.6,5.3,323.3,7.2z"/>
		<path class="st1" d="M240.5,468c0.3-6.2,0.7-11.9,1-17.9c5.9,0,11.6,0,17.8,0c0,6,0,11.8,0,17.9C253.3,468,247.3,468,240.5,468z"
			/>
		<path class="st1" d="M58.5,305.2c1.9,5.7,3.7,11,5.6,16.7c-5.6,2.2-11.1,4.3-17,6.6c-2.1-6.2-4.1-12.1-6.2-18.3
			C46.9,308.5,52.6,306.9,58.5,305.2z"/>
		<path class="st1" d="M79.8,353.8c-5.3,3.2-10.2,6.2-15.6,9.5c-3.1-5.5-6-10.9-9.4-17c5.5-2.7,10.8-5.4,16.5-8.2
			C74.2,343.6,77,348.6,79.8,353.8z"/>
		<path class="st1" d="M189,440.3c-1.9,5.9-3.7,11.4-5.7,17.4c-6.1-2.3-11.9-4.4-18.1-6.8c2.3-5.6,4.5-10.8,7.1-16.8
			C177.9,436.1,183.3,438.1,189,440.3z"/>
		<path class="st1" d="M62.7,182.7c-6-2.2-11.3-4.1-17.2-6.2c2.5-6.1,4.9-11.8,7.4-17.9c5.6,2.6,10.8,5,16.6,7.6
			C67.3,171.7,65.1,176.9,62.7,182.7z"/>
		<path class="st1" d="M115.3,421.2c-5-4.4-9.7-8.4-14.6-12.7c4.2-4.5,8.1-8.7,12.5-13.3c4.4,3.8,8.7,7.5,13.5,11.6
			C122.9,411.6,119.2,416.3,115.3,421.2z"/>
		<path class="st1" d="M206.1,445c6.2,1.1,11.7,2.1,17.6,3.1c-0.8,6.1-1.6,11.9-2.5,18.1c-6.2-1.1-12-2.1-18.9-3.3
			C203.6,457.1,204.8,451.3,206.1,445z"/>
		<path class="st1" d="M57.4,199.7c-1.3,5.9-2.4,11.3-3.7,17.3c-6-1-11.7-1.9-18-2.9c1.3-6.4,2.5-12.2,3.9-18.9
			C45.6,196.7,51.3,198.2,57.4,199.7z"/>
		<path class="st1" d="M36.4,291.3c-0.9-6.6-1.8-12.5-2.7-19.1c6.1-0.7,11.9-1.3,18.2-2c0.9,6,1.7,11.6,2.5,17.6
			C48.4,289,42.8,290.1,36.4,291.3z"/>
		<path class="st1" d="M75,379.5c5-3.7,9.6-7,14.8-10.9c3.7,4.5,7.2,8.9,11.2,13.8c-4.5,4-8.8,7.9-13.7,12.2
			C83.2,389.6,79.3,384.8,75,379.5z"/>
		<path class="st1" d="M147.7,442.5c-5.8-3.5-11-6.6-16.6-10c3.4-5.1,6.5-9.9,10.1-15.3c5.1,3,10.1,6,15.3,9.1
			C153.5,431.7,150.8,436.7,147.7,442.5z"/>
		<path class="st1" d="M33.1,233.3c6.3,0.5,12,0.9,17.7,1.4c0,6,0,11.6,0,17.5c-6.2,0-11.9,0-17.7,0C33.1,246.1,33.1,240,33.1,233.3
			z"/>
	</g>
</g>
<g id="Layer_3">
	<g>
		<g>
			<path class="st2" d="M249.9,159.5c-9.6,0-17,5.1-17,14.2c0,27.8,3.3,67.7,3.3,95.5c0,7.2,6.3,10.3,13.8,10.3
				c5.6,0,13.5-3,13.5-10.3c0-27.8,3.3-67.7,3.3-95.5C266.7,164.6,259,159.5,249.9,159.5z"/>
		</g>
	</g>
	<g>
		<g>
			<path class="st2" d="M250.1,295.6c-10.3,0-18,8.2-18,18c0,9.6,7.7,18,18,18c9.6,0,17.7-8.4,17.7-18
				C267.8,303.8,259.7,295.6,250.1,295.6z"/>
		</g>
	</g>
</g>
</svg>
