<?xml version="1.0" encoding="utf-8"?>
<!-- Generator: Adobe Illustrator 21.1.0, SVG Export Plug-In . SVG Version: 6.00 Build 0)  -->
<svg version="1.1" id="Layer_1" xmlns="http://www.w3.org/2000/svg" xmlns:xlink="http://www.w3.org/1999/xlink" x="0px" y="0px"
	 viewBox="0 0 486 500" style="enable-background:new 0 0 486 500;" xml:space="preserve">
<style type="text/css">
	.st0{fill:#E05B41;}
	.st1{fill:#FFFFFF;}
</style>
<g>
	<path class="st0" d="M414.5,240.9c-0.6-19.6-4.6-38.3-11.3-55.7c18.9-18.9,37.8-37.7,56.7-56.7c-2.6-4.4-5.5-9.4-8.4-14.4
		c-0.6,0.2-1,0.2-1.2,0.4c-18.2,18.1-36.4,36.2-54.5,54.4c-2.4-4.6-4.9-9.1-7.7-13.5c18.2-18.2,36.3-36.2,54.5-54.4
		c-3.1-4-6.5-8.4-9.8-12.8c-18.2,18.2-36,36-54,54c-3.2-4.1-6.5-8-10.1-11.8c17.8-17.8,35.7-35.7,53.4-53.4
		c-3.6-3.7-7.5-7.7-10.9-11.2c-18.1,18.1-36,36-53.7,53.6c-4.1-3.6-8.3-7.1-12.7-10.3c18.2-18.2,36.2-36.2,54.3-54.3
		c-4.1-3.2-8.7-6.7-12.9-10c-18.6,18.5-36.9,36.8-55.2,55.2c-4.2-2.5-8.6-4.9-13-7c17.6-17.8,35.4-35.5,53.1-53.2
		c0.9-0.9,1.7-2,2.8-3.3c-5.5-3.2-10.5-6.1-14.2-8.2c-19.5,19.5-38.8,38.7-58,57.9c-17.2-6.2-35.6-9.6-54.8-10V1.7l-20.9,0.1
		c-0.8,0.2-1.7,0.5-2.5,0.6c-5.1,0.9-10.3,1.8-15.4,2.6C196.9,7,185,8.9,173.6,11.6c-7.8,1.9-15.3,4.7-23.2,7.8
		c-2.4,0.9-4.9,1.9-7.4,2.8l29,69.9c-16.1,7.5-30.8,17.5-43.6,29.4c-24.9-9.7-49.6-19.3-74.5-29c-3,4.1-6.4,8.8-9.8,13.4
		c0.4,0.5,0.5,0.8,0.8,0.9c23.6,9.2,47.2,18.4,70.9,27.5c-3.4,3.9-6.7,8-9.8,12.3c-23.5-9.1-46.8-18.2-70.3-27.3
		c-2.4,4.4-5.1,9.4-7.7,14.2c23.3,9,46.2,17.9,69.1,26.8c-2.6,4.5-5.1,9.1-7.3,13.8c-22.7-8.8-45.4-17.6-67.9-26.4
		c-1.9,4.8-4,10-5.8,14.5c22.8,8.9,45.4,17.7,67.7,26.3c-1.8,5.1-3.4,10.3-4.8,15.6c-22.7-8.8-45.4-17.6-68.1-26.4
		c-1.3,5.1-2.6,10.6-3.9,15.9c23.1,9,45.9,17.8,68.8,26.7c-0.7,4.8-1.2,9.7-1.6,14.6c-21.9-8.4-43.8-16.9-65.7-25.4
		c-1.2-0.5-2.6-0.8-4.2-1.2c-0.7,6.3-1.3,12-1.8,16.3c24,9.3,47.7,18.5,71.3,27.7c0.6,18.2,4,35.6,9.9,52l-66.7,26.1
		c0,0,20.6,63.6,62.7,104l54.2-57.8c12.5,10.6,26.6,19.5,41.9,26.2c0.6,29.7,1.2,59,1.8,88.7c5,1.2,10.6,2.6,16.1,3.9
		c0.3-0.5,0.6-0.8,0.6-1.1c-0.5-28.4-1.1-56.8-1.7-85.2c4.9,1.6,10,2.9,15.1,4c0.6,28.4,1.1,56.6,1.7,84.9c5,0.5,10.6,1.2,16.1,1.8
		c-0.6-28.3-1.2-56.1-1.7-84c5.1,0.6,10.3,1,15.5,1.1c0.6,27.7,1.1,55.5,1.7,83.1c5.1,0,10.8-0.1,15.6-0.1
		c-0.6-28.1-1.1-55.9-1.7-83.2c5.5-0.3,10.9-0.9,16.2-1.8c0.6,28.1,1.1,55.8,1.7,83.8c5.1-0.8,10.8-1.6,16.2-2.4
		c-0.6-28.5-1.1-56.6-1.7-84.8c4.8-1.2,9.5-2.7,14.1-4.3c0.7,27.2,1.2,54.5,1.8,81.7c0,1.3,0.3,2.7,0.4,4.3
		c6.1-1.8,11.6-3.4,15.7-4.6c-0.6-29.7-1.2-59-1.8-88.2c15.7-7.5,30-17.3,42.6-29l51,50.9c38.2-37.4,62.1-82.2,71.2-133.3
		c1.1-6.5,1.9-13.1,2.7-19.6c0.4-3,0.7-6.1,1.1-9.1v-19.6H414.5z M161,27.4c23.3-8.7,46.7-13.3,71.4-14.3L236,13v57.3l-56.3,11.2
		l-22-52.9L161,27.4z M79.6,416.4l-2.5-3.1c-17.8-21.8-32-45.2-43.2-71.3l-1.6-3.7l53.4-20.9l34,56.2L79.6,416.4z M474.9,255.6
		c-2.8,56.7-23.4,106.6-61.3,148.4l-2.4,2.6l-42.1-41.5l2.2-2.4c13.5-15.1,24-31.9,31.5-49.7c7.6-18.2,11.8-37.1,13-57.8l0.2-3.2
		h59.1L474.9,255.6z"/>
	<path class="st0" d="M344.5,20.6c-4.7-1.9-9.3-3.7-13.8-5.8c-2.4-1.1-3.9-0.9-5.9,1.1c-9.9,10.1-20,20.1-30,30.2
		c-0.9,0.9-2.2,2-2.2,3c-0.2,7.8-0.1,15.5-0.1,23.6C310.2,55.1,327.2,38,344.5,20.6z"/>
	<path class="st0" d="M438.6,195.3c0.9,0,2-1,2.8-1.7c10.4-10.3,20.8-20.7,31.1-31.2c0.9-0.9,1.4-2.9,1-4c-1.8-5.1-4-10.1-5.9-14.7
		c-17.2,17.2-34.4,34.3-51.9,51.7C423.2,195.4,430.9,195.5,438.6,195.3z"/>
	<path class="st0" d="M484.3,195.1c-1.7-6.7-3.3-12.8-4.8-18.7c-6.3,6.3-12.4,12.3-18.8,18.7C468.1,195.1,476,195.1,484.3,195.1z"/>
	<path class="st0" d="M313,8.7c-7.6-1.9-13.7-3.4-20.3-5.1c0,8.4,0,16.1,0,24.5c1.1-0.8,1.7-1.2,2.3-1.7
		C300.7,20.8,306.4,15.2,313,8.7z"/>
	<path class="st0" d="M350.8,425.7c-5.5-5.5-11.1-10.8-17-16.4c0.5,24.9,1,49.1,1.6,73.6c4.6-2,9.1-4.1,13.8-6c2.4-1,3.4-2.3,3.3-5
		c-0.4-14.2-0.6-28.4-1-42.5C351.5,428.2,351.6,426.5,350.8,425.7z"/>
	<path class="st0" d="M144.3,429.8c-0.6,0.7-0.7,2.1-0.7,3.2c0.3,14.7,0.5,29.3,1,44c0,1.2,1.1,3,2.2,3.5c5,2.2,10.1,4.1,14.7,5.9
		c-0.5-24.3-0.9-48.5-1.4-73.3C154.8,418.7,149.5,424.1,144.3,429.8z"/>
	<path class="st0" d="M112.8,463c6,3.4,11.5,6.5,16.7,9.5c-0.2-8.9-0.3-17.5-0.5-26.5C124,451.3,118.6,456.9,112.8,463z"/>
	<path class="st0" d="M365.6,443.1c0.1,8,0.2,16,0.3,25.3c6.6-4.2,11.9-7.5,17.7-11.1c-6.1-5.8-11.6-11.2-17.6-16.9
		C365.8,441.7,365.6,442.4,365.6,443.1z"/>
	<path class="st0" d="M45.1,277c1.2,0.5,2.7,1.2,3.7,0.8c7.2-3,14.2-6.2,21.6-9.4c-23.3-9-45.8-17.7-68.7-26.6
		c0.1,5.1,0.3,10,0.3,15c0,2.6,0.8,4,3.4,4.9C18.7,266.7,31.9,271.9,45.1,277z"/>
	<path class="st0" d="M123.7,85.2c-0.4-0.9-1.7-1.4-2.7-1.8c-13.7-5.3-27.3-10.7-41.1-15.8c-1.1-0.4-3.2-0.1-4.1,0.7
		c-4,3.7-7.6,7.8-11.1,11.4c22.7,8.8,45.2,17.6,68.3,26.6C129.9,99.2,126.9,92.2,123.7,85.2z"/>
	<path class="st0" d="M105,43.5c-5.4,4.3-10.4,8.2-15.2,11.9c8.3,3.2,16.3,6.4,24.6,9.7C111.5,58.3,108.4,51.1,105,43.5z"/>
	<path class="st0" d="M27,284.8c-7.4-3-14.9-5.9-23.5-9.3c1.3,7.7,2.4,13.9,3.5,20.6c7.7-3.4,14.8-6.5,22.4-9.9
		C28.3,285.5,27.7,285,27,284.8z"/>
</g>
<g>
	<g>
		<path class="st1" d="M354.2,296.5l-93.5-155.1c-3.7-6.1-10.4-9.9-17.5-9.9c-7.1,0-13.9,3.8-17.5,9.9L132,296.5
			c-3.8,6.3-3.9,14.2-0.3,20.7c3.6,6.4,10.5,10.4,17.8,10.4h187.1c7.4,0,14.2-4,17.8-10.4C358.1,310.7,358,302.8,354.2,296.5z
			 M341.5,309.8c-1,1.8-2.9,2.9-4.9,2.9H149.5c-2,0-3.9-1.1-4.9-2.9c-1-1.8-1-3.9,0.1-5.7L238.2,149c1-1.7,2.9-2.7,4.8-2.7
			c2,0,3.8,1,4.8,2.7l93.5,155.1C342.5,305.9,342.5,308.1,341.5,309.8z"/>
	</g>
	<g>
		<g>
			<path class="st1" d="M243.1,192.5c-5.6,0-10.1,3-10.1,8.4c0,16.4,1.9,39.9,1.9,56.3c0,4.3,3.7,6.1,8.1,6.1c3.3,0,8-1.8,8-6.1
				c0-16.4,1.9-39.9,1.9-56.3C253,195.5,248.5,192.5,243.1,192.5z"/>
		</g>
	</g>
	<g>
		<g>
			<path class="st1" d="M243.3,272.8c-6.1,0-10.6,4.8-10.6,10.6c0,5.6,4.5,10.6,10.6,10.6c5.6,0,10.5-5,10.5-10.6
				C253.7,277.6,248.9,272.8,243.3,272.8z"/>
		</g>
	</g>
</g>
</svg>
