<?xml version="1.0" encoding="utf-8"?>
<!-- Generator: Adobe Illustrator 21.1.0, SVG Export Plug-In . SVG Version: 6.00 Build 0)  -->
<svg version="1.1" id="Capa_1" xmlns="http://www.w3.org/2000/svg" xmlns:xlink="http://www.w3.org/1999/xlink" x="0px" y="0px"
	 viewBox="0 0 502.2 502.2" style="enable-background:new 0 0 502.2 502.2;" xml:space="preserve">
<style type="text/css">
	.st0{fill:#9A9A9A;}
</style>
<g>
	<g>
		<path class="st0" d="M501.5,268.1c-1.8-13-15.2-23.4-40.3-31c-20.3-6.1-46-9.8-74-10.4V120.1c0-2.2-0.7-4.3-2.1-6
			c-3.3-11.6-16.7-21-39.9-28c-22.5-6.8-51.9-10.5-82.8-10.5c-30.8,0-59.9,3.7-81.9,10.5c-18.1,5.6-39.8,16-39.8,33.9
			c0,1.1,0.1,2.2,0.3,3.3l1.1,45.6C77.2,156.4,14.5,199.1,2.1,264C0.7,271.3,0,278.8,0,286.3C0,352.3,53.7,406,119.7,406
			c27.5,0,54.1-9.5,75.5-26.8c18.8,4.4,40.8,6.8,64.1,7c5.1,27.7,65.1,40.4,121.1,40.4c30.8,0,59.8-3.8,82-10.7
			c18.2-5.6,39.8-16.1,39.8-34V272C502.2,270.8,502,269.4,501.5,268.1z M186.5,105.2c20.2-6.2,47.2-9.7,76-9.7
			c28.6,0,56.6,3.5,77,9.7c21.7,6.6,26.4,13.4,26.4,14.8s-4.7,8.3-26.5,14.8c-20.3,6.1-48.3,9.7-76.9,9.7c-27.6,0-53.8-3.2-73.7-9
			c-21.5-6.2-27.5-13.1-28-15.3c0-0.2,0-0.3-0.1-0.3C160.8,118.4,165.4,111.7,186.5,105.2z M367.2,144.9v25.6
			c-0.9,1.4-1.4,3.1-1.3,4.8c0,1.3-4.7,8.2-26.5,14.8c-20.3,6.1-48.4,9.7-77,9.7c-24.7,0-48.9-2.6-68.1-7.5
			c-0.3-0.1-0.5-0.1-0.8-0.2c-9.5-7.5-20-13.4-31.3-17.7l-0.7-28.2c6.9,3.5,14.1,6.3,21.6,8.3c21.7,6.3,49.8,9.7,79.3,9.7
			c30.9,0,60.3-3.7,82.7-10.5C352.8,151.6,360.2,148.6,367.2,144.9z M186.8,360C146.1,397.1,83,394.1,46,353.4
			s-34.1-103.8,6.6-140.8c18.4-16.7,42.3-26,67.1-26c10,0,20,1.5,29.6,4.4c34.6,10.9,60.7,39.6,68.2,75.1c1.3,6.6,2,13.4,2,20.1
			C219.5,314.5,207.6,341.3,186.8,360z M212.2,362.3c8.1-9.9,14.6-21,19.2-32.9c8.5,0.7,17.5,1.2,26.7,1.3v1.8l0.5,33.9
			C243.1,366.1,227.6,364.8,212.2,362.3z M238.8,274.5c5.9,0.4,12,0.6,18.2,0.7c0,0.2,0.1,0.5,0.1,0.7l0.6,34.7
			c-7.1-0.1-14-0.4-20.7-0.9c1.5-7.7,2.3-15.6,2.3-23.4C239.4,282.4,239.2,278.5,238.8,274.5z M263.4,255.3c-0.3,0-0.6,0-0.9,0
			c-9.6,0-18.9-0.4-27.5-1c-3.8-13.4-9.8-26-17.9-37.2c15,1.9,30.1,2.9,45.3,2.9c30.9,0,60.3-3.7,82.8-10.5c7.7-2.4,15-5.3,22-9
			v26.5C324.2,228.1,279.8,237.1,263.4,255.3z M276.8,270.6c1-2.8,8.3-9.3,28.8-15.1c19.5-5.5,44.9-8.5,71.6-8.5h1.3
			c28.6,0,56.6,3.3,77,9.5c21.1,6.4,26.1,12.8,26.4,14.5v0.1c-0.1,1.5-5.1,8.4-27.3,15c-20.5,6.1-47.5,9.4-76.1,9.4
			c-27,0-52.8-3.1-72.6-8.6c-19.1-5.4-26.8-11.5-28.7-14.6C277.1,271.8,277,271.1,276.8,270.6z M482.2,382c0,1.4-4.5,8.3-25.7,14.9
			c-20.3,6.3-47.3,9.8-76.1,9.8c-28.9,0-55.9-3.4-75.9-9.5c-21.2-6.5-25.5-13.2-25.5-14.7c0-0.1,0-0.1,0-0.2l-0.5-28.9
			c23.8,12.1,63.5,17.6,99.9,17.6c30.9,0,60.1-3.7,82.5-10.5c7.4-2.2,14.5-5.2,21.3-8.8L482.2,382L482.2,382z M481.3,326.5
			c0,1.4-4.6,8.2-26.2,14.8c-20.5,6.2-47.7,9.6-76.7,9.6c-54.9,0-92.1-12.3-100.3-22l-0.2-8.6l-0.4-22.9c7.3,3.7,14.9,6.6,22.8,8.7
			c21.5,6,49.2,9.4,78,9.4c30.4,0,59.4-3.6,81.7-10.2c7.7-2.2,15.1-5.1,22.1-8.8v25.7h0.1C482.2,323.5,481.3,325,481.3,326.5z"/>
	</g>
</g>
<g>
	<path class="st0" d="M150.7,300.6c-0.6-2.1-1.4-4-2.3-5.6c-0.9-1.6-2.2-3.1-3.9-4.6c-1.7-1.5-3.2-2.7-4.5-3.6
		c-1.3-0.9-3.2-2-5.5-3.1c-2.3-1.1-4.2-2-5.5-2.6c-1.4-0.6-3.3-1.3-5.9-2.3c-2.3-0.9-4-1.5-5.1-2c-1.1-0.5-2.6-1.1-4.4-2
		c-1.8-0.9-3.2-1.6-4.1-2.3c-0.9-0.7-1.9-1.5-2.9-2.4c-1-0.9-1.7-2-2.2-3c-0.4-1.1-0.6-2.2-0.6-3.5c0-3.3,1.5-6,4.4-8.1
		c2.9-2.1,6.7-3.1,11.3-3.1c2,0,4.1,0.3,6.2,0.8c2.1,0.6,3.9,1.2,5.4,1.9c1.5,0.7,2.9,1.5,4.3,2.3c1.3,0.9,2.3,1.5,2.8,1.9
		c0.6,0.4,0.9,0.7,1.1,0.9c0.6,0.5,1.3,0.7,2,0.5c0.7,0,1.3-0.4,1.7-1.2l5.9-10.7c0.6-1,0.5-1.9-0.4-2.8c-0.3-0.3-0.7-0.6-1.1-1
		c-0.4-0.4-1.4-1.1-2.8-2.1c-1.5-1-3-1.9-4.6-2.7c-1.6-0.8-3.7-1.6-6.3-2.4c-2.6-0.8-5.3-1.4-8.1-1.7v-12.8c0-0.7-0.2-1.2-0.7-1.7
		c-0.4-0.4-1-0.7-1.7-0.7h-9.9c-0.6,0-1.2,0.2-1.6,0.7c-0.5,0.5-0.7,1-0.7,1.6v13.1c-7.6,1.5-13.8,4.7-18.6,9.8
		c-4.8,5.1-7.2,10.9-7.2,17.7c0,2,0.2,3.9,0.6,5.7c0.4,1.8,0.9,3.4,1.5,4.9c0.6,1.4,1.5,2.8,2.6,4.2c1.1,1.4,2.2,2.6,3.2,3.6
		c1,1,2.3,2,3.9,3.1c1.6,1.1,3,1.9,4.1,2.6c1.1,0.7,2.7,1.4,4.6,2.3c1.9,0.9,3.4,1.5,4.5,1.9c1.1,0.4,2.6,1,4.5,1.8
		c2.6,1,4.6,1.8,5.8,2.4c1.3,0.6,2.9,1.3,4.8,2.3c1.9,1,3.4,1.9,4.3,2.7c0.9,0.8,1.7,1.8,2.4,3.1c0.7,1.2,1.1,2.5,1.1,3.9
		c0,3.8-1.5,6.8-4.5,8.9c-3,2.1-6.5,3.1-10.4,3.1c-1.8,0-3.6-0.2-5.4-0.6c-6.3-1.3-12.2-4.3-17.7-9.1l-0.1-0.1
		c-0.4-0.5-1-0.8-1.8-0.7c-0.8,0.1-1.3,0.4-1.7,0.9l-7.5,9.8c-0.7,1-0.7,2,0.1,3c0.2,0.3,0.7,0.7,1.3,1.3c0.6,0.6,1.7,1.5,3.4,2.7
		c1.7,1.2,3.5,2.4,5.4,3.5c1.9,1.1,4.4,2.2,7.4,3.2c3,1.1,6.1,1.8,9.3,2.3v12.8c0,0.6,0.2,1.2,0.7,1.6c0.5,0.5,1,0.7,1.6,0.7h9.9
		c0.7,0,1.2-0.2,1.7-0.7c0.4-0.4,0.7-1,0.7-1.7v-12.8c7.7-1.3,14-4.6,18.9-10c4.8-5.4,7.3-11.8,7.3-19.2
		C151.7,305,151.4,302.7,150.7,300.6z"/>
</g>
</svg>
